<?xml version="1.0" standalone="no"?><!DOCTYPE svg PUBLIC "-//W3C//DTD SVG 1.1//EN" "http://www.w3.org/Graphics/SVG/1.1/DTD/svg11.dtd"><svg t="1503205562257" class="icon" style="" viewBox="0 0 1024 1024" version="1.1" xmlns="http://www.w3.org/2000/svg" p-id="1748" xmlns:xlink="http://www.w3.org/1999/xlink" width="200" height="200"><defs><style type="text/css"></style></defs><path d="M738.480686 420.667875 398.718469 420.667875c-15.640212 0-28.312836-14.666024-28.312836-30.30112 0-15.634072 12.672624-30.305213 28.312836-30.305213l339.762217 0c15.638165 0 28.316929 14.671141 28.316929 30.305213C766.797615 406.001851 754.118851 420.667875 738.480686 420.667875L738.480686 420.667875zM738.480686 420.667875" p-id="1749" fill="#f4ea2a"></path><path d="M268.426007 362.729302l54.537104 0 0 54.538127-54.537104 0L268.426007 362.729302 268.426007 362.729302zM268.426007 362.729302" p-id="1750" fill="#f4ea2a"></path><path d="M738.480686 600.086198 398.718469 600.086198c-15.640212 0-28.312836-14.666024-28.312836-30.305213 0-15.637142 12.672624-30.300097 28.312836-30.300097l339.762217 0c15.638165 0 28.316929 14.662955 28.316929 30.300097C766.797615 585.420173 754.118851 600.086198 738.480686 600.086198L738.480686 600.086198zM738.480686 600.086198" p-id="1751" fill="#f4ea2a"></path><path d="M268.426007 542.513968l54.537104 0 0 54.537104-54.537104 0L268.426007 542.513968 268.426007 542.513968zM268.426007 542.513968" p-id="1752" fill="#f4ea2a"></path><path d="M738.480686 779.49838 398.718469 779.49838c-15.640212 0-28.312836-14.668071-28.312836-30.300097 0-15.639189 12.672624-30.305213 28.312836-30.305213l339.762217 0c15.638165 0 28.316929 14.666024 28.316929 30.305213C766.797615 764.830309 754.118851 779.49838 738.480686 779.49838L738.480686 779.49838zM738.480686 779.49838" p-id="1753" fill="#f4ea2a"></path><path d="M268.426007 721.927173l54.537104 0 0 54.538127-54.537104 0L268.426007 721.927173 268.426007 721.927173zM268.426007 721.927173" p-id="1754" fill="#f4ea2a"></path><path d="M782.290471 129.732713l-18.85237 0c-4.701069-34.45472-34.294061-61.087287-70.02075-61.087287L342.976934 68.645426c-35.725666 0-65.320705 26.632567-70.02075 61.087287l-18.85237 0c-61.385069 0-111.319341 49.938366-111.319341 111.320365l0 607.318926c0 61.381999 49.933249 111.315248 111.319341 111.315248L782.290471 959.687252c61.381999 0 111.320365-49.933249 111.320365-111.315248L893.610836 241.053078C893.610836 179.671079 843.676563 129.732713 782.290471 129.732713L782.290471 129.732713zM332.411297 139.335419c0-5.829775 4.740978-10.570753 10.565636-10.570753l350.440417 0c5.824659 0 10.56666 4.740978 10.56666 10.570753l0 47.041386c0 5.824659-4.742001 10.567683-10.56666 10.567683L342.976934 196.944488c-5.824659 0-10.565636-4.743024-10.565636-10.567683L332.411297 139.335419 332.411297 139.335419zM833.491597 848.372004c0 28.225855-22.975271 51.196009-51.201126 51.196009L254.103814 899.568013c-28.224832 0-51.199079-22.970154-51.199079-51.196009L202.904735 241.053078c0-28.225855 22.974247-51.197032 51.199079-51.197032l18.275225 0c1.817392 37.375236 32.785707 67.212798 70.597895 67.212798l350.440417 0c37.81935 0 68.781526-29.837562 70.598918-67.212798l18.273179 0c28.225855 0 51.201126 22.970154 51.201126 51.197032L833.490573 848.372004 833.491597 848.372004 833.491597 848.372004zM833.491597 848.372004" p-id="1755" fill="#f4ea2a"></path></svg>